#!OML:ASF E:\Steps\Project 1\Capture day 1\Session 2\Subject.ASF
:FULLY-SPECIFIED
:DEGREES
262
root 14.442 14.9039 18.267 -174.531 -6.73067 166.811
lowerback -18.6852 0.789012 3.09377
upperback 3.5888 0.445036 -0.970067
thorax 14.6933 0.530804 -2.72795
lowerneck -0.682761 6.10226 -1.78062
upperneck 16.6785 7.78268 -1.52909
head 5.12225 3.24432 0.140861
rclavicle -6.85807e-015 2.54444e-014
rhumerus -38.8574 -8.47069 -72.2751
rradius 42.3391
rwrist -4.02364
rhand -7.72762 -416.247
rfingers 7.12502
rthumb 18.1709 -445.418
lclavicle -6.85807e-015 2.54444e-014
lhumerus -40.8541 15.4301 69.8783
lradius 20.2774
lwrist -6.97774
lhand -20.0249 -16.9404
lfingers 7.12502
lthumb 6.31577 12.9454
rfemur -0.782562 7.05141 7.62533
rtibia 42.4767
rfoot -45.9355 -16.285
rtoes -40.8866
lfemur -52.6435 3.46359 10.3995
ltibia 23.8349
lfoot 15.206 18.0493
ltoes -10.9053
263
root 14.3642 14.8737 18.1928 -174.748 -6.68912 166.848
lowerback -18.4243 0.719924 3.1808
upperback 3.65549 0.334329 -0.931412
thorax 14.6071 0.48514 -2.76689
lowerneck -0.703083 6.12029 -1.85773
upperneck 16.7261 7.79975 -1.46186
head 5.13461 3.24915 0.175707
rclavicle -1.48095e-014 -1.74931e-014
rhumerus -38.5574 -8.00838 -72.4213
rradius 43.0726
rwrist -3.81365
rhand -6.76799 -415.353
rfingers 7.12502
rthumb 19.0939 -444.436
lclavicle -1.48095e-014 -1.74931e-014
lhumerus -41.2359 15.9283 69.4138
lradius 20.1155
lwrist -7.33397
lhand -20.1223 -17.1841
lfingers 7.12502
lthumb 6.22174 12.7045
rfemur -0.0671555 7.2124 7.4873
rtibia 42.3101
rfoot -46.0918 -16.3223
rtoes -41.7878
lfemur -52.1905 3.1031 10.7287
ltibia 23.1901
lfoot 15.7028 18.1704
ltoes -10.1251
264
root 14.2839 14.8419 18.1238 -174.892 -6.64587 167.068
lowerback -18.1358 0.758198 3.50562
upperback 3.6578 0.314788 -0.901907
thorax 14.4381 0.499375 -2.92317
lowerneck -0.606605 6.12832 -1.76233
upperneck 16.8711 7.79141 -1.50129
head 5.16869 3.23746 0.146545
rclavicle 1.90833e-014 3.81667e-014
rhumerus -38.4067 -7.80182 -72.4738
rradius 43.6631
rwrist -3.0807
rhand -5.84376 -417.8
rfingers 7.12502
rthumb 19.9825 -446.793
lclavicle 1.90833e-014 3.81667e-014
lhumerus -41.7059 15.9593 69.0456
lradius 20.0917
lwrist -7.63542
lhand -20.6018 -17.6633
lfingers 7.12502
lthumb 5.75881 12.2384
rfemur 0.465067 7.43151 7.54326
rtibia 42.2571
rfoot -45.8999 -16.1023
rtoes -41.0773
lfemur -51.9006 2.85101 11.2514
ltibia 22.7119
lfoot 15.7665 18.7469
ltoes -7.4322
265
root 14.193 14.8141 18.047 -174.736 -6.15196 166.989
lowerback -18.259 0.936959 3.65049
upperback 3.66475 0.522281 -0.948847
thorax 14.5414 0.611913 -2.99686
lowerneck -0.539496 6.19715 -1.7631
upperneck 16.9649 7.88489 -1.59599
head 5.19074 3.26933 0.12065
rclavicle -1.12313e-014 1.59028e-015
rhumerus -38.0176 -7.74709 -72.4595
rradius 43.6102
rwrist -3.07616
rhand -6.15124 -418.337
rfingers 7.12502
rthumb 19.687 -447.36
lclavicle -1.12313e-014 1.59028e-015
lhumerus -41.9804 15.9527 68.8109
lradius 20.0541
lwrist -7.64478
lhand -20.6315 -18.0102
lfingers 7.12502
lthumb 5.73012 11.8924
rfemur 0.38088 7.80085 7.05251
rtibia 42.5594
rfoot -45.9252 -15.9516
rtoes -41.3279
lfemur -51.5595 2.81634 11.5448
ltibia 22.2711
lfoot 15.6101 19.6208
ltoes -4.3076
266
root 14.1069 14.7849 17.9763 -174.769 -5.95552 167.028
lowerback -18.101 0.847251 3.74026
upperback 3.8184 0.365095 -0.807434
thorax 14.6147 0.543532 -2.93536
lowerneck -0.814508 6.33269 -2.36447
upperneck 16.8412 8.12174 -1.51601
head 5.17166 3.36242 0.25905
rclavicle 1.86858e-014 5.725e-014
rhumerus -37.0785 -7.21287 -72.519
rradius 42.9658
rwrist -4.60793
rhand -8.06181 -417.358
rfingers 7.12502
rthumb 17.8494 -446.559
lclavicle 1.86858e-014 5.725e-014
lhumerus -42.1071 16.7693 68.5007
lradius 19.8698
lwrist -7.75226
lhand -20.5457 -17.2149
lfingers 7.12502
lthumb 5.81294 12.6854
rfemur 0.582672 7.94482 6.79615
rtibia 42.7675
rfoot -45.8284 -16.4231
rtoes -43.1157
lfemur -51.3265 2.71276 11.6855
ltibia 21.9993
lfoot 16.2571 19.6566
ltoes -5.48413
267
root 14.0201 14.7546 17.8943 -174.923 -5.98282 167.169
lowerback -17.9526 0.985694 3.97402
upperback 3.86903 0.516212 -0.915154
thorax 14.6039 0.640248 -3.14523
lowerneck -0.775912 6.17561 -1.93482
upperneck 17.0559 7.87483 -1.55911
head 5.2505 3.25347 0.168068
rclavicle 1.23246e-014 -7.95139e-015
rhumerus -37.055 -7.39438 -72.7191
rradius 43.679
rwrist -4.3956
rhand -5.44565 -420.6
rfingers 7.12502
rthumb 20.3652 -449.553
lclavicle 1.23246e-014 -7.95139e-015
lhumerus -42.213 16.2395 68.205
lradius 19.8166
lwrist -7.47612
lhand -20.3374 -15.1496
lfingers 7.12502
lthumb 6.01405 14.7451
rfemur 1.19105 8.01137 6.72664
rtibia 42.7309
rfoot -45.8803 -16.8028
rtoes -44.4047
lfemur -51.0979 2.44918 11.8897
ltibia 21.685
lfoot 17.1838 19.2731
ltoes -8.79908
